# xmcd CD database file
#
# Track frame offsets:
#	150
#	10492
#	22302
#	36240
#	50183
#	65058
#	82824
#	95593
#	108493
#	125844
#
# Disc length: 1908 seconds
#
# Revision: 0
# Processed by: cddbd v1.5.2PL0 Copyright (c) Steve Scherf et al.
# Submitted via: CDex 1.77
#
DISCID=9207720a
DTITLE=Lizzy Long and Little Roy Lewis - Straight From The Heart Of Dixie
DYEAR=2010
DGENRE=Country
TTITLE0=Mountaintop
TTITLE1=Sit Down And Cry
TTITLE2=Didn't It Rain
TTITLE3=Roscoe Thompson's 1950 GMC
TTITLE4=Boogie Woogie
TTITLE5=Swing Low Sweet Chariot
TTITLE6=My Dixie Darling
TTITLE7=Everyday Will Be Sunday
TTITLE8=As Long As I Live
TTITLE9=Train 45
EXTD=YEAR: 2010
EXTT0=
EXTT1=
EXTT2=
EXTT3=
EXTT4=
EXTT5=
EXTT6=
EXTT7=
EXTT8=
EXTT9=
PLAYORDER=
